# xmcd
#
# Track frame offsets: 
#        150
#        19445
#        38199
#        55959
#        72690
#        81945
#        90887
#        105283
#        121688
#        138800
#        163278
#        185476
#        201990
#        223128
#        236781
#        251935
#        267069
#        291119
#        310294
#
# Disc length: 4781 seconds
#
# Revision: 0
# Processed by: cddbd v1.5.2PL0 Copyright (c) Steve Scherf et al.
# Submitted via: ExactAudioCopy v0.99pb4
#
DISCID=1d12ab13
DTITLE=Bill Witers - Free Soul The Classic of Bill Withers
DYEAR=2007
DGENRE=Soul
TTITLE0=Lean On Me
TTITLE1=Lovely Day
TTITLE2=Just The Two Of Us
TTITLE3=Use Me
TTITLE4=Ain't No Sunshine
TTITLE5=Grandma's Hands
TTITLE6=Who Is He (And What Is He To You)?
TTITLE7=Lonely Town, Lonely Street
TTITLE8=Kissing My Love
TTITLE9=Hello Like Before
TTITLE10=Tender Things
TTITLE11=I Want To Spend The Night
TTITLE12=Let Me Be The One You Need
TTITLE13=I Don't Know
TTITLE14=The Same Love That Made Me Laugh
TTITLE15=Harlem
TTITLE16=World Keeps Going Around
TTITLE17=Let Me In Your Life (Live)
TTITLE18=City Of The Angels
EXTD=
EXTT0=
EXTT1=
EXTT2=
EXTT3=
EXTT4=
EXTT5=
EXTT6=
EXTT7=
EXTT8=
EXTT9=
EXTT10=
EXTT11=
EXTT12=
EXTT13=
EXTT14=
EXTT15=
EXTT16=
EXTT17=
EXTT18=
PLAYORDER=
